<svg xmlns="http://www.w3.org/2000/svg" width="640" height="440" viewBox="0 0 640 440">
  <rect width="640" height="440" rx="24" fill="#f1f5f9" stroke="#0f172a" stroke-width="3"/>
  <rect x="24" y="24" width="592" height="392" rx="24" fill="#ffffff" stroke="#334155" stroke-width="3"/>
  <rect x="42" y="42" width="556" height="356" rx="18" fill="#f8fbff" stroke="#94a3b8" stroke-width="2"/>
  <image href="../source/pdcp-photo.jpeg" x="88" y="70" width="464" height="270" preserveAspectRatio="xMidYMid meet"/>
  <rect x="70" y="54" width="500" height="292" rx="18" fill="none" stroke="#cbd5e1" stroke-width="2"/>
  <rect x="54" y="354" width="532" height="34" rx="12" fill="#e2e8f0"/>
  <text x="320" y="376" text-anchor="middle" font-family="Arial, sans-serif" font-size="16" font-weight="700" fill="#0f172a">PDCP template • numbered hotspots</text>
  <circle cx="214" cy="122" r="10" fill="#38bdf8" stroke="#ffffff" stroke-width="2"/>
  <circle cx="320" cy="122" r="10" fill="#38bdf8" stroke="#ffffff" stroke-width="2"/>
  <circle cx="426" cy="122" r="10" fill="#38bdf8" stroke="#ffffff" stroke-width="2"/>
  <circle cx="214" cy="278" r="10" fill="#38bdf8" stroke="#ffffff" stroke-width="2"/>
  <circle cx="426" cy="278" r="10" fill="#38bdf8" stroke="#ffffff" stroke-width="2"/>
  <rect x="188" y="96" width="52" height="24" rx="12" fill="#0f172a"/>
  <rect x="294" y="96" width="52" height="24" rx="12" fill="#0f172a"/>
  <rect x="400" y="96" width="52" height="24" rx="12" fill="#0f172a"/>
  <rect x="188" y="252" width="52" height="24" rx="12" fill="#0f172a"/>
  <rect x="400" y="252" width="52" height="24" rx="12" fill="#0f172a"/>
  <text x="214" y="112" text-anchor="middle" font-family="Arial, sans-serif" font-size="11" font-weight="700" fill="#ffffff">1</text>
  <text x="320" y="112" text-anchor="middle" font-family="Arial, sans-serif" font-size="11" font-weight="700" fill="#ffffff">2</text>
  <text x="426" y="112" text-anchor="middle" font-family="Arial, sans-serif" font-size="11" font-weight="700" fill="#ffffff">3</text>
  <text x="214" y="268" text-anchor="middle" font-family="Arial, sans-serif" font-size="11" font-weight="700" fill="#ffffff">4</text>
  <text x="426" y="268" text-anchor="middle" font-family="Arial, sans-serif" font-size="11" font-weight="700" fill="#ffffff">5</text>
</svg>
